<?xml version="1.0" encoding="UTF-8"?>
<svg version="1.1" xmlns="http://www.w3.org/2000/svg" width="436" height="142">

<path d="M0 0 C1.65 0 3.3 0 5 0 C5.33 9.57 5.66 19.14 6 29 C8.31 27.68 10.62 26.36 13 25 C17.61815778 23.99508887 21.11818081 24.55077136 25.3125 26.6875 C28.51726825 29.44509129 31.10108292 32.20216584 33 36 C33.98319328 49.68907563 33.98319328 49.68907563 30 55 C26.08794355 58.90136777 22.89096202 60.80769878 17.3125 61.375 C12.28122487 61.35633108 8.92716527 58.92448478 5 56 C5 57.32 5 58.64 5 60 C3.35 60 1.7 60 0 60 C0 40.2 0 20.4 0 0 Z " fill="#868A8D" transform="translate(215,38)"/>
<path d="M0 0 C4.50498864 2.55420457 7.16184803 5.00734568 8.75390625 10.08203125 C8.75390625 12.72203125 8.75390625 15.36203125 8.75390625 18.08203125 C0.17390625 18.08203125 -8.40609375 18.08203125 -17.24609375 18.08203125 C-15.02828417 25.42508305 -15.02828417 25.42508305 -12.49609375 28.08203125 C-9.23104437 29.53316431 -6.78062651 29.45408733 -3.24609375 29.08203125 C0.29260565 27.4306382 1.56460778 26.36597896 3.75390625 23.08203125 C5.40390625 23.74203125 7.05390625 24.40203125 8.75390625 25.08203125 C6.95121505 29.28831071 4.55517067 32.05273729 0.56640625 34.33203125 C-4.81686435 35.76757008 -10.00379669 36.06595877 -15.05859375 33.45703125 C-19.31446871 30.28598716 -21.57384831 27.09876757 -23.24609375 22.08203125 C-23.99193575 15.48665697 -23.79316225 10.20436279 -19.7890625 4.7421875 C-14.44547164 -1.0072457 -7.43872068 -3.0401728 0 0 Z " fill="#82878A" transform="translate(279.24609375,63.91796875)"/>
<path d="M0 0 C2.6875 -0.5 2.6875 -0.5 6 0 C8.19493803 2.35313176 9.52778631 5.15725705 11 8 C12.10368527 10.0002657 13.20785835 12.0002623 14.3125 14 C15.21079008 15.66534383 16.10749982 17.33154605 17 19 C19.24830883 16.91006261 20.78046574 14.89046062 22.26171875 12.20703125 C22.65810547 11.49482422 23.05449219 10.78261719 23.46289062 10.04882812 C23.86701172 9.31083984 24.27113281 8.57285156 24.6875 7.8125 C25.31108398 6.68811523 25.31108398 6.68811523 25.94726562 5.54101562 C26.96937725 3.69651534 27.9852981 1.8485869 29 0 C31.31 0 33.62 0 36 0 C34.73376125 3.37342882 33.2820039 6.35163184 31.36328125 9.3984375 C30.86892578 10.20796875 30.37457031 11.0175 29.86523438 11.8515625 C28.83032038 13.53346047 27.78339716 15.20802784 26.72460938 16.875 C24.51327045 20.5363496 23.05439044 23.1156517 22.7890625 27.4296875 C24.54786165 32.61530822 27.22991941 37.0819072 30.0625 41.75 C31.18410291 43.61636761 32.30026583 45.48601855 33.41015625 47.359375 C34.15471069 48.58865723 34.15471069 48.58865723 34.91430664 49.84277344 C36 52 36 52 36 55 C34.02 55 32.04 55 30 55 C24.06 44.605 24.06 44.605 18 34 C14.50002497 38.36924075 14.50002497 38.36924075 11.640625 42.98828125 C11.24746094 43.69404297 10.85429687 44.39980469 10.44921875 45.12695312 C10.05347656 45.84818359 9.65773437 46.56941406 9.25 47.3125 C8.83878906 48.05306641 8.42757812 48.79363281 8.00390625 49.55664062 C6.99845215 51.36879627 5.998647 53.1840842 5 55 C2.69 55 0.38 55 -2 55 C-0.81568938 52.74827175 0.37209787 50.49850723 1.5625 48.25 C1.91948975 47.57275879 2.27647949 46.89551758 2.64428711 46.19775391 C4.39010447 42.9127339 6.16635136 39.67136016 8.125 36.5078125 C8.764375 35.47398438 9.40375 34.44015625 10.0625 33.375 C10.65160156 32.45460937 11.24070313 31.53421875 11.84765625 30.5859375 C13.26230017 27.41138064 12.92443576 26.30272921 12 23 C10.79976963 20.48786189 10.79976963 20.48786189 9.27734375 17.98828125 C8.73916016 17.06595703 8.20097656 16.14363281 7.64648438 15.19335938 C7.08251953 14.24267578 6.51855469 13.29199219 5.9375 12.3125 C4.81780997 10.41500033 3.70172855 8.51536509 2.58984375 6.61328125 C2.09347412 5.77579346 1.59710449 4.93830566 1.08569336 4.07543945 C0 2 0 2 0 0 Z " fill="#83888C" transform="translate(153,43)"/>
<path d="M0 0 C3.80930249 2.33752653 6.19279876 4.91001825 8 9 C8.57256111 14.24847685 7.75188036 17.51545423 5 22 C2.7406478 24.74302583 1.14352452 25.47871567 -2.375 25.875 C-5.47215065 26.11633641 -6.92406693 26.02971294 -9.875 24.875 C-13.87961139 21.34151936 -15.20888257 18.42122463 -15.5625 13.125 C-15.43734355 8.19972545 -13.88838917 5.7477425 -10.5078125 2.27734375 C-7.16236273 -0.55675489 -4.28025602 -0.36273356 0 0 Z " fill="#040505" transform="translate(235,68)"/>
<path d="M0 0 C3.10039543 1.75494081 5.48825667 3.48825667 8 6 C8.22705078 8.88916016 8.22705078 8.88916016 8.1953125 12.5390625 C8.18886719 13.84101562 8.18242187 15.14296875 8.17578125 16.484375 C8.15906929 17.86458595 8.14213939 19.24479429 8.125 20.625 C8.11497006 22.01301452 8.10584423 23.40103589 8.09765625 24.7890625 C8.07401863 28.19288026 8.04106867 31.59635506 8 35 C6.35 35 4.7 35 3 35 C2.98598145 33.89543457 2.98598145 33.89543457 2.97167969 32.76855469 C2.91795845 29.42835782 2.83431378 26.08955881 2.75 22.75 C2.73582031 21.59113281 2.72164063 20.43226562 2.70703125 19.23828125 C2.67480469 18.12324219 2.64257812 17.00820312 2.609375 15.859375 C2.58842773 14.83295898 2.56748047 13.80654297 2.54589844 12.74902344 C1.86543867 9.322379 0.73352 8.11751549 -2 6 C-5 5.33333333 -5 5.33333333 -8 6 C-10.73352 8.11751549 -11.86543867 9.322379 -12.54589844 12.74902344 C-12.5668457 13.77543945 -12.58779297 14.80185547 -12.609375 15.859375 C-12.64160156 16.97441406 -12.67382812 18.08945313 -12.70703125 19.23828125 C-12.72121094 20.39714844 -12.73539062 21.55601563 -12.75 22.75 C-12.77964844 23.92433594 -12.80929687 25.09867188 -12.83984375 26.30859375 C-12.91050727 29.20579822 -12.96322266 32.10219955 -13 35 C-14.98 35 -16.96 35 -19 35 C-19 23.78 -19 12.56 -19 1 C-17.35 1 -15.7 1 -14 1 C-14 1.99 -14 2.98 -14 4 C-12.989375 3.34 -11.97875 2.68 -10.9375 2 C-7.13547593 -0.14630391 -4.40321363 -0.64046744 0 0 Z " fill="#85898D" transform="translate(376,63)"/>
<path d="M0 0 C11.87870751 -1.22883181 22.37752197 4.75361315 31.5390625 11.88671875 C40.38402755 19.48215699 47.59974462 28.97186917 49.64453125 40.6953125 C49.96106288 47.51178441 49.2094105 52.80399313 44.890625 58.22265625 C39.8408486 62.9698634 34.76085945 64.20614808 27.9375 64.25 C26.29077252 64.18675121 24.64422345 64.11063933 23 64 C23 62.68 23 61.36 23 60 C23.79664062 59.97421875 24.59328125 59.9484375 25.4140625 59.921875 C33.9303122 59.49601331 33.9303122 59.49601331 41 55 C45.0988728 49.30108528 44.81571564 43.7791513 44 37 C40.69351695 25.88254975 30.73671159 15.92341742 21 10 C14.56394557 6.98554628 8.12665481 4.49720848 1 4 C0.67 2.68 0.34 1.36 0 0 Z " fill="#C15584" transform="translate(88,27)"/>
<path d="M0 0 C0 0.66 0 1.32 0 2 C-2.56013753 3.28006876 -4.51202879 3.10859922 -7.375 3.1875 C-19.71063664 4.18848245 -29.40134803 11.51003885 -38 20 C-40.89360521 23.53216315 -43.52195516 27.16631886 -46 31 C-45.34 30.67 -44.68 30.34 -44 30 C-32.01674567 29.20024233 -21.45918067 30.50292034 -10 34 C-10.33 35.32 -10.66 36.64 -11 38 C-14.38527404 37.49220889 -17.68761981 36.8535749 -21 36 C-28.76449808 34.03690049 -36.45164545 33.07348333 -44.375 34.6875 C-47 35 -47 35 -49.375 33.5625 C-49.91125 33.046875 -50.4475 32.53125 -51 32 C-46.17390691 18.23216084 -32.90383608 8.17251039 -20.45703125 1.671875 C-14.39545133 -1.06499097 -6.27922552 -3.13961276 0 0 Z " fill="#5F9778" transform="translate(78,23)"/>
<path d="M0 0 C0.78503906 -0.00257812 1.57007813 -0.00515625 2.37890625 -0.0078125 C4.4375 0.125 4.4375 0.125 6.4375 1.125 C6.4375 2.775 6.4375 4.425 6.4375 6.125 C5.77363281 6.09019531 5.10976563 6.05539063 4.42578125 6.01953125 C-2.59935567 5.72700869 -2.59935567 5.72700869 -8.5625 9.125 C-11.26522426 13.56862494 -11.36710854 18.06632258 -10.5625 23.125 C-8.87962073 26.24677233 -6.7797593 28.51637035 -3.5625 30.125 C-1.85547265 30.19496014 -0.14581997 30.20940154 1.5625 30.1875 C2.47257812 30.17847656 3.38265625 30.16945313 4.3203125 30.16015625 C5.01898438 30.14855469 5.71765625 30.13695313 6.4375 30.125 C6.4375 31.775 6.4375 33.425 6.4375 35.125 C2.95492278 36.86628861 -0.75476753 36.57443728 -4.5625 36.125 C-10.17365643 34.116337 -13.6542358 30.33529284 -16.64453125 25.3046875 C-18.41973618 21.08952005 -18.08308123 16.60199861 -17.5625 12.125 C-15.20715564 7.23313094 -11.8451542 4.31421058 -7.5625 1.125 C-4.73533905 0.18261302 -2.93073877 -0.00965647 0 0 Z " fill="#82868A" transform="translate(411.5625,62.875)"/>
<path d="M0 0 C1.65 0 3.3 0 5 0 C5 19.8 5 39.6 5 60 C3.35 60 1.7 60 0 60 C0 40.2 0 20.4 0 0 Z " fill="#888B8F" transform="translate(323,38)"/>
<path d="M0 0 C9.03995916 4.10907234 16.17895963 9.82916269 23 17 C21.84826645 19.46800047 20.95216435 21.04783565 19 23 C9.67480657 22.26338808 2.00702193 13.46006549 -4 7 C-2.79618552 4.50638429 -1.54571278 2.31856917 0 0 Z " fill="#4C92B9" transform="translate(80,63)"/>
<path d="M0 0 C3.34649806 0.63864467 6.29011407 1.96700382 9.37817383 3.37475586 C20.52050112 8.44857674 30.6131675 12.31627969 43 12.4375 C44.2207019 12.4528479 44.2207019 12.4528479 45.46606445 12.46850586 C50.10976738 12.3994132 53.23481361 12.0004967 57 9 C58.32793606 6.93299345 58.32793606 6.93299345 59 5 C59.99 5 60.98 5 62 5 C62.375 7.1875 62.375 7.1875 62 10 C56.73745643 15.51925301 51.39474846 17.0648014 43.8125 17.25 C27.32918585 16.86823387 13.09353767 11.12368367 -1 3 C-0.67 2.01 -0.34 1.02 0 0 Z " fill="#4998C0" transform="translate(46,89)"/>
<path d="M0 0 C-0.66 1.65 -1.32 3.3 -2 5 C-3.3921875 4.9071875 -3.3921875 4.9071875 -4.8125 4.8125 C-7.91538318 4.72956492 -7.91538318 4.72956492 -9.8125 6.1875 C-12.12701496 9.72018073 -12.13921882 13.95609548 -12.31640625 18.08203125 C-12.35830078 19.01337891 -12.40019531 19.94472656 -12.44335938 20.90429688 C-12.48267578 21.86400391 -12.52199219 22.82371094 -12.5625 23.8125 C-12.62727539 25.28106445 -12.62727539 25.28106445 -12.69335938 26.77929688 C-12.7990226 29.18607027 -12.90112327 31.59293983 -13 34 C-14.65 34 -16.3 34 -18 34 C-18 22.78 -18 11.56 -18 0 C-16.02 0 -14.04 0 -12 0 C-12 0.66 -12 1.32 -12 2 C-11.319375 1.484375 -10.63875 0.96875 -9.9375 0.4375 C-6.19881168 -1.39207088 -3.99556587 -0.86178872 0 0 Z " fill="#878B8F" transform="translate(316,64)"/>
<path d="M0 0 C1.98 0 3.96 0 6 0 C6 11.22 6 22.44 6 34 C4.02 34 2.04 34 0 34 C0 22.78 0 11.56 0 0 Z " fill="#7D8287" transform="translate(197,64)"/>
<path d="M0 0 C1.65 0 3.3 0 5 0 C5 11.22 5 22.44 5 34 C3.35 34 1.7 34 0 34 C0 22.78 0 11.56 0 0 Z " fill="#8A8D91" transform="translate(340,64)"/>
<path d="M0 0 C-0.33 1.32 -0.66 2.64 -1 4 C-4.38527404 3.49220889 -7.68761981 2.8535749 -11 2 C-19.69279642 -0.19780136 -28.15790595 -0.86149348 -37 1 C-37.66 -0.32 -38.32 -1.64 -39 -3 C-25.89229004 -6.17997697 -12.63996643 -3.85742845 0 0 Z " fill="#4998C2" transform="translate(68,57)"/>
<path d="M0 0 C3.125 2.3125 3.125 2.3125 5 5 C5 5.99 5 6.98 5 8 C-1.27 8 -7.54 8 -14 8 C-12.28219791 -0.58901043 -8.19754588 -1.42282245 0 0 Z " fill="#040405" transform="translate(277,69)"/>
<path d="M0 0 C2.25 0.25 2.25 0.25 4 1 C-0.10832029 10.76278262 -10.83163645 15.9829335 -20 20 C-20.33 18.68 -20.66 17.36 -21 16 C-20.23816406 15.59910156 -19.47632813 15.19820312 -18.69140625 14.78515625 C-12.0247374 11.11474306 -6.93689759 7.38188207 -1.9375 1.625 C-1.298125 1.08875 -0.65875 0.5525 0 0 Z " fill="#5F9475" transform="translate(67,66)"/>
<path d="M0 0 C0.61875 0.66 1.2375 1.32 1.875 2 C7.52185876 7.63077084 13.70306746 12.71638036 21 16 C21.66 16.66 22.32 17.32 23 18 C22.34 18.66 21.68 19.32 21 20 C11.67480657 19.26338808 4.00702193 10.46006549 -2 4 C-1.34 2.68 -0.68 1.36 0 0 Z " fill="#C2588A" transform="translate(78,66)"/>
<path d="M0 0 C0.99 0.33 1.98 0.66 3 1 C2.53225013 3.52584929 1.97429347 5.03619899 0.46875 7.15625 C-1.39265658 10.76024997 -1.33482166 13.86503511 -1.1875 17.8125 C-1.17396484 18.50537109 -1.16042969 19.19824219 -1.14648438 19.91210938 C-1.11138845 21.60841265 -1.05758943 23.30431136 -1 25 C-1.99 25.33 -2.98 25.66 -4 26 C-6.38893363 20.47559099 -6.97767699 14.91494578 -6 9 C-4.35493023 5.68116738 -2.36135206 2.84627258 0 0 Z " fill="#BC5482" transform="translate(73,31)"/>
<path d="M0 0 C0.67360912 8.08330939 -1.55828345 13.7355197 -5 21 C-6.32 21 -7.64 21 -9 21 C-8.80664062 20.39414062 -8.61328125 19.78828125 -8.4140625 19.1640625 C-6.74204926 13.78382186 -5.43838942 8.49531063 -4.52734375 2.93359375 C-4.35332031 2.29550781 -4.17929688 1.65742187 -4 1 C-2 0 -2 0 0 0 Z " fill="#5C9473" transform="translate(85,35)"/>
<path d="M0 0 C0.96164063 -0.00257812 1.92328125 -0.00515625 2.9140625 -0.0078125 C5.375 0.125 5.375 0.125 7.375 1.125 C7.375 1.785 7.375 2.445 7.375 3.125 C4.54230334 4.54134833 1.90033562 4.4713005 -1.25 4.6875 C-2.43851562 4.77128906 -3.62703125 4.85507812 -4.8515625 4.94140625 C-6.22441406 5.03228516 -6.22441406 5.03228516 -7.625 5.125 C-8.285 3.805 -8.945 2.485 -9.625 1.125 C-6.36274826 0.15096275 -3.39761339 -0.00915799 0 0 Z " fill="#599070" transform="translate(70.625,21.875)"/>
<path d="M0 0 C2.69881542 2.49121423 5.03977213 5.18583045 7.3125 8.0625 C7.84488281 8.73410156 8.37726562 9.40570313 8.92578125 10.09765625 C9.28027344 10.72542969 9.63476562 11.35320312 10 12 C9.67 12.99 9.34 13.98 9 15 C4.957284 13.50269778 2.09240037 10.72262394 0 7 C-0.3125 3.125 -0.3125 3.125 0 0 Z " fill="#4895BB" transform="translate(26,68)"/>
<path d="M0 0 C6.94424639 3.41466489 12.40756246 7.67198031 18 13 C17.67 13.66 17.34 14.32 17 15 C10.96464193 11.185989 4.93292971 7.21519544 0 2 C0 1.34 0 0.68 0 0 Z " fill="#120F14" transform="translate(81,68)"/>
<path d="M0 0 C3.125 0.375 3.125 0.375 6 1 C6.042721 2.66611905 6.04063832 4.33382885 6 6 C5 7 5 7 1.9375 7.0625 C0.968125 7.041875 -0.00125 7.02125 -1 7 C-1.625 4.625 -1.625 4.625 -2 2 C-1.34 1.34 -0.68 0.68 0 0 Z " fill="#818588" transform="translate(198,47)"/>
<path d="M0 0 C4.29 0 8.58 0 13 0 C12.34 1.32 11.68 2.64 11 4 C7.37 4 3.74 4 0 4 C0 2.68 0 1.36 0 0 Z " fill="#B54F7C" transform="translate(111,87)"/>
<path d="M0 0 C2.49118953 3.7367843 2.2065226 5.74451819 2.125 10.1875 C2.10695312 11.45980469 2.08890625 12.73210937 2.0703125 14.04296875 C2.03550781 15.50669922 2.03550781 15.50669922 2 17 C1.67 17 1.34 17 1 17 C0.67 15.35 0.34 13.7 0 12 C-0.66 12.99 -1.32 13.98 -2 15 C-2.05429959 13.25034642 -2.09292823 11.50020213 -2.125 9.75 C-2.15980469 8.28820312 -2.15980469 8.28820312 -2.1953125 6.796875 C-1.99862781 3.9803502 -1.44568916 2.39050964 0 0 Z " fill="#B34E79" transform="translate(135,61)"/>
<path d="M0 0 C2.5 0.125 2.5 0.125 3.5 1.125 C3.625 3.625 3.625 3.625 3.5 6.125 C2.5 7.125 2.5 7.125 0 7.25 C-2.5 7.125 -2.5 7.125 -3.5 6.125 C-3.625 3.625 -3.625 3.625 -3.5 1.125 C-2.5 0.125 -2.5 0.125 0 0 Z " fill="#868A8E" transform="translate(342.5,46.875)"/>
<path d="M0 0 C3.82773086 0.42530343 7.3756723 1.73569964 11 3 C10.34 4.32 9.68 5.64 9 7 C7.53932801 6.54917531 6.08151968 6.08906463 4.625 5.625 C3.81289063 5.36976562 3.00078125 5.11453125 2.1640625 4.8515625 C0 4 0 4 -2 2 C-1.34 1.34 -0.68 0.68 0 0 Z " fill="#4794BB" transform="translate(58,95)"/>
<path d="M0 0 C-3.2870757 3.81300782 -6.39727838 5.22972246 -11 7 C-11.33 5.68 -11.66 4.36 -12 3 C-4.71428571 -1.71428571 -4.71428571 -1.71428571 0 0 Z " fill="#5F9777" transform="translate(58,79)"/>
<path d="M0 0 C3.42227589 1.25483449 5.54080489 3.3651481 8 6 C7.67 6.99 7.34 7.98 7 9 C2.7257442 7.4169423 0.73468206 4.49431596 -2 1 C-1.34 0.67 -0.68 0.34 0 0 Z " fill="#4E9CC5" transform="translate(95,74)"/>
<path d="M0 0 C0.99 0.495 0.99 0.495 2 1 C2 1.66 2 2.32 2 3 C3.98 3.66 5.96 4.32 8 5 C8 5.99 8 6.98 8 8 C1.125 7.125 1.125 7.125 0 6 C-0.04080783 4.00041636 -0.04254356 1.99954746 0 0 Z " fill="#5A9172" transform="translate(26,80)"/>
<path d="M0 0 C0.99 0 1.98 0 3 0 C4.85776765 3.13498292 5.20140476 5.37471432 5 9 C4.01 9 3.02 9 2 9 C0.50178941 5.62902617 0 3.79557881 0 0 Z " fill="#CA5887" transform="translate(130,55)"/>
<path d="M0 0 C0.66 0 1.32 0 2 0 C3.60725635 3.21451269 3.05748185 6.43612536 3 10 C2.01 10.33 1.02 10.66 0 11 C0 7.37 0 3.74 0 0 Z " fill="#B9507E" transform="translate(67,40)"/>
<path d="M0 0 C3.35595828 0.59927826 5.37801226 1.84622436 8 4 C7.67 4.66 7.34 5.32 7 6 C3.62537285 5.45276317 1.91765 4.9451 -1 3 C-0.67 2.01 -0.34 1.02 0 0 Z " fill="#C65788" transform="translate(108,33)"/>
<path d="M0 0 C4.29 0.33 8.58 0.66 13 1 C13 1.66 13 2.32 13 3 C9.04 3 5.08 3 1 3 C0.67 2.01 0.34 1.02 0 0 Z " fill="#4EA4D0" transform="translate(79,102)"/>
<path d="M0 0 C2.66666667 2.66666667 5.33333333 5.33333333 8 8 C6 9 6 9 3.5 8.3125 C1 7 1 7 -0.375 5.0625 C-1 3 -1 3 0 0 Z " fill="#080E0F" transform="translate(27,76)"/>
<path d="M0 0 C0.598125 0.226875 1.19625 0.45375 1.8125 0.6875 C0.41917426 4.05470387 -1.1664286 5.6734524 -4.1875 7.6875 C-4.875 5.375 -4.875 5.375 -5.1875 2.6875 C-3.60587179 0.1901923 -2.97595617 -0.4251366 0 0 Z " fill="#56886D" transform="translate(69.1875,66.3125)"/>
<path d="M0 0 C1.98 0.495 1.98 0.495 4 1 C3.67 2.65 3.34 4.3 3 6 C1.68 5.67 0.36 5.34 -1 5 C-0.67 3.35 -0.34 1.7 0 0 Z " fill="#727A7D" transform="translate(72,59)"/>
<path d="M0 0 C1.65 0 3.3 0 5 0 C4.67 1.65 4.34 3.3 4 5 C2.68 4.67 1.36 4.34 0 4 C0 2.68 0 1.36 0 0 Z " fill="#7A8284" transform="translate(38,84)"/>
<path d="M0 0 C1.98 0.495 1.98 0.495 4 1 C3.67 2.32 3.34 3.64 3 5 C1.68 5 0.36 5 -1 5 C-0.67 3.35 -0.34 1.7 0 0 Z " fill="#82868D" transform="translate(104,85)"/>
<path d="M0 0 C1.76462683 3.08809695 2 4.23312136 2 8 C1.01 8.33 0.02 8.66 -1 9 C-1.625 6.1875 -1.625 6.1875 -2 3 C-1.34 2.01 -0.68 1.02 0 0 Z " fill="#C65689" transform="translate(70,48)"/>
<path d="M0 0 C1.32 0 2.64 0 4 0 C3.67 1.65 3.34 3.3 3 5 C1.68 4.67 0.36 4.34 -1 4 C-0.67 2.68 -0.34 1.36 0 0 Z " fill="#81868C" transform="translate(80,27)"/>
<path d="M0 0 C1.32 0.99 2.64 1.98 4 3 C3.67 3.99 3.34 4.98 3 6 C1.68 5.34 0.36 4.68 -1 4 C-0.67 2.68 -0.34 1.36 0 0 Z " fill="#4DA0C9" transform="translate(32,77)"/>
<path d="M0 0 C1.5 1.375 1.5 1.375 3 3 C3 3.66 3 4.32 3 5 C2.34 5 1.68 5 1 5 C0.67 5.99 0.34 6.98 0 8 C-0.66 6.02 -1.32 4.04 -2 2 C-1.34 2 -0.68 2 0 2 C0 1.34 0 0.68 0 0 Z " fill="#B6517D" transform="translate(129,50)"/>
<path d="M0 0 C1.98 0 3.96 0 6 0 C5.34 1.32 4.68 2.64 4 4 C2.68 3.34 1.36 2.68 0 2 C0 1.34 0 0.68 0 0 Z " fill="#50A1BF" transform="translate(29,54)"/>
</svg>
